# Blender v2.92.0 OBJ File: ''
# www.blender.org
mtllib PhotoneoGeo.mtl
o Cube_Cube.001
v 0.063770 -0.014447 0.687533
v 0.063770 -0.143629 0.687533
v 0.063770 -0.014447 -0.091289
v 0.063770 -0.143629 -0.091289
v -0.063770 -0.014447 0.687533
v -0.063770 -0.143629 0.687533
v -0.063770 -0.014447 -0.091289
v -0.063770 -0.143629 -0.091289
v 0.063770 -0.014447 0.298122
v 0.063770 -0.143629 0.298122
v -0.063770 -0.014447 0.298122
v -0.063770 -0.143629 0.298122
v 0.063770 -0.143629 0.103416
v -0.063770 -0.014447 0.103416
v 0.063770 -0.014447 0.103416
v -0.063770 -0.143629 0.103416
v 0.063770 -0.143629 0.006064
v -0.063770 -0.014447 0.006064
v 0.063770 -0.014447 0.006064
v -0.063770 -0.143629 0.006064
v 0.000000 -0.014447 -0.091289
v -0.000000 -0.143629 -0.091289
v 0.000000 -0.014447 0.687533
v -0.000000 -0.143629 0.687533
v -0.000000 -0.143629 0.298122
v 0.000000 -0.014447 0.298122
v 0.000000 -0.014447 0.103416
v -0.000000 -0.143629 0.103416
v -0.000000 -0.143629 0.006064
v 0.063770 -0.014447 0.054740
v -0.063770 -0.143629 0.054740
v 0.063770 -0.143629 0.054740
v -0.063770 -0.014447 0.054740
v -0.000000 -0.143629 0.054740
v 0.000000 -0.014447 0.054740
v 0.031885 -0.014447 -0.091289
v 0.031885 -0.143629 0.687533
v 0.031885 -0.014447 0.298122
v 0.031885 -0.014447 0.103416
v 0.031885 -0.014447 0.006064
v 0.031885 -0.143629 -0.091289
v 0.031885 -0.014447 0.687533
v 0.031885 -0.143629 0.298122
v 0.031885 -0.143629 0.103416
v 0.031885 -0.143629 0.006064
v 0.031885 -0.014447 0.054740
v 0.031885 -0.143629 0.054740
v -0.031885 -0.143629 -0.091289
v -0.031885 -0.014447 0.687533
v -0.031885 -0.143629 0.298122
v -0.031885 -0.143629 0.103416
v -0.031885 -0.143629 0.006064
v -0.031885 -0.014447 -0.091289
v -0.031885 -0.143629 0.687533
v -0.031885 -0.014447 0.298122
v -0.031885 -0.014447 0.103416
v -0.031885 -0.014447 0.006064
v -0.031885 -0.143629 0.054740
v -0.031885 -0.014447 0.054740
v 0.063770 -0.143629 -0.042613
v -0.063770 -0.014447 -0.042613
v 0.063770 -0.014447 -0.042613
v -0.063770 -0.143629 -0.042613
v 0.000000 -0.014447 -0.042613
v -0.000000 -0.143629 -0.042613
v 0.031885 -0.014447 -0.042613
v 0.031885 -0.143629 -0.042613
v -0.031885 -0.143629 -0.042613
v -0.031885 -0.014447 -0.042613
v -0.031885 0.016493 0.006064
v 0.000000 0.016493 0.006064
v 0.000000 0.016493 -0.042613
v 0.000000 0.016493 0.054740
v -0.031885 0.016493 0.054740
v 0.031885 0.016493 0.006064
v 0.031885 0.016493 0.054740
v 0.031885 0.016493 -0.042613
v -0.031885 0.016493 -0.042613
vt 0.375000 0.234375
vt 0.625000 0.234375
vt 0.625000 0.250000
vt 0.375000 0.250000
vt 0.375000 0.437500
vt 0.625000 0.437500
vt 0.625000 0.500000
vt 0.375000 0.500000
vt 0.375000 0.625000
vt 0.625000 0.625000
vt 0.625000 0.750000
vt 0.375000 0.750000
vt 0.375000 0.937500
vt 0.625000 0.937500
vt 0.625000 1.000000
vt 0.375000 1.000000
vt 0.312500 0.625000
vt 0.312500 0.750000
vt 0.812500 0.625000
vt 0.875000 0.625000
vt 0.875000 0.750000
vt 0.812500 0.750000
vt 0.812500 0.562500
vt 0.875000 0.562500
vt 0.312500 0.562500
vt 0.375000 0.562500
vt 0.625000 0.562500
vt 0.375000 0.000000
vt 0.625000 0.000000
vt 0.625000 0.125000
vt 0.375000 0.125000
vt 0.375000 0.546875
vt 0.625000 0.546875
vt 0.312500 0.546875
vt 0.812500 0.546875
vt 0.875000 0.546875
vt 0.625000 0.187500
vt 0.375000 0.187500
vt 0.812500 0.515625
vt 0.875000 0.515625
vt 0.875000 0.531250
vt 0.812500 0.531250
vt 0.312500 0.515625
vt 0.375000 0.515625
vt 0.375000 0.531250
vt 0.312500 0.531250
vt 0.625000 0.515625
vt 0.625000 0.531250
vt 0.375000 0.203125
vt 0.625000 0.203125
vt 0.625000 0.218750
vt 0.375000 0.218750
vt 0.250000 0.515625
vt 0.312500 0.515625
vt 0.250000 0.515625
vt 0.687500 0.515625
vt 0.750000 0.515625
vt 0.750000 0.531250
vt 0.687500 0.531250
vt 0.687500 0.546875
vt 0.750000 0.546875
vt 0.750000 0.562500
vt 0.687500 0.562500
vt 0.187500 0.546875
vt 0.250000 0.546875
vt 0.250000 0.562500
vt 0.187500 0.562500
vt 0.250000 0.625000
vt 0.187500 0.625000
vt 0.750000 0.625000
vt 0.687500 0.625000
vt 0.750000 0.750000
vt 0.687500 0.750000
vt 0.250000 0.750000
vt 0.187500 0.750000
vt 0.375000 0.812500
vt 0.625000 0.812500
vt 0.625000 0.875000
vt 0.375000 0.875000
vt 0.375000 0.312500
vt 0.625000 0.312500
vt 0.625000 0.375000
vt 0.375000 0.375000
vt 0.187500 0.531250
vt 0.187500 0.515625
vt 0.187500 0.515625
vt 0.187500 0.531250
vt 0.125000 0.531250
vt 0.125000 0.546875
vt 0.125000 0.625000
vt 0.125000 0.750000
vt 0.125000 0.562500
vt 0.125000 0.515625
vt 0.250000 0.546875
vt 0.312500 0.546875
vt 0.187500 0.546875
vt 0.250000 0.500000
vt 0.312500 0.500000
vt 0.687500 0.500000
vt 0.750000 0.500000
vt 0.812500 0.500000
vt 0.125000 0.500000
vt 0.187500 0.500000
vt 0.875000 0.500000
vt 0.250000 0.531250
vt 0.312500 0.531250
vn 1.0000 -0.0000 0.0000
vn -0.0000 0.0000 -1.0000
vn -1.0000 0.0000 0.0000
vn -0.0000 0.0000 1.0000
vn 0.0000 1.0000 0.0000
vn 0.0000 -1.0000 0.0000
usemtl None
s off
f 62/1/1 60/2/1 4/3/1 3/4/1
f 53/5/2 48/6/2 8/7/2 7/8/2
f 11/9/3 12/10/3 6/11/3 5/12/3
f 42/13/4 37/14/4 2/15/4 1/16/4
f 55/17/5 11/9/5 5/12/5 49/18/5
f 43/19/6 10/20/6 2/21/6 37/22/6
f 44/23/6 13/24/6 10/20/6 43/19/6
f 56/25/5 14/26/5 11/9/5 55/17/5
f 14/26/3 16/27/3 12/10/3 11/9/3
f 1/28/1 2/29/1 10/30/1 9/31/1
f 33/32/3 31/33/3 16/27/3 14/26/3
f 59/34/5 33/32/5 14/26/5 56/25/5
f 47/35/6 32/36/6 13/24/6 44/23/6
f 9/31/1 10/30/1 13/37/1 15/38/1
f 67/39/6 60/40/6 17/41/6 45/42/6
f 69/43/5 61/44/5 18/45/5 57/46/5
f 61/44/3 63/47/3 20/48/3 18/45/3
f 30/49/1 32/50/1 17/51/1 19/52/1
f 64/53/2 69/43/2 78/54/2 72/55/2
f 68/56/6 65/57/6 29/58/6 52/59/6
f 58/60/6 34/61/6 28/62/6 51/63/6
f 46/64/5 35/65/5 27/66/5 39/67/5
f 39/67/5 27/66/5 26/68/5 38/69/5
f 51/63/6 28/62/6 25/70/6 50/71/6
f 50/71/6 25/70/6 24/72/6 54/73/6
f 38/69/5 26/68/5 23/74/5 42/75/5
f 49/76/4 54/77/4 24/78/4 23/79/4
f 36/80/2 41/81/2 22/82/2 21/83/2
f 40/84/1 66/85/1 77/86/1 75/87/1
f 52/59/6 29/58/6 34/61/6 58/60/6
f 15/38/1 13/37/1 32/50/1 30/49/1
f 45/42/6 17/41/6 32/36/6 47/35/6
f 57/46/5 18/45/5 33/32/5 59/34/5
f 18/45/3 20/48/3 31/33/3 33/32/3
f 29/58/6 45/42/6 47/35/6 34/61/6
f 19/88/5 40/84/5 46/64/5 30/89/5
f 3/4/2 4/3/2 41/81/2 36/80/2
f 9/90/5 38/69/5 42/75/5 1/91/5
f 15/92/5 39/67/5 38/69/5 9/90/5
f 30/89/5 46/64/5 39/67/5 15/92/5
f 62/93/5 66/85/5 40/84/5 19/88/5
f 65/57/6 67/39/6 45/42/6 29/58/6
f 34/61/6 47/35/6 44/23/6 28/62/6
f 28/62/6 44/23/6 43/19/6 25/70/6
f 25/70/6 43/19/6 37/22/6 24/72/6
f 23/79/4 24/78/4 37/14/4 42/13/4
f 59/34/4 35/65/4 73/94/4 74/95/4
f 20/48/6 52/59/6 58/60/6 31/33/6
f 5/12/4 6/11/4 54/77/4 49/76/4
f 12/10/6 50/71/6 54/73/6 6/11/6
f 16/27/6 51/63/6 50/71/6 12/10/6
f 31/33/6 58/60/6 51/63/6 16/27/6
f 63/47/6 68/56/6 52/59/6 20/48/6
f 46/64/1 40/84/1 75/87/1 76/96/1
f 35/65/5 59/34/5 56/25/5 27/66/5
f 27/66/5 56/25/5 55/17/5 26/68/5
f 26/68/5 55/17/5 49/18/5 23/74/5
f 21/83/2 22/82/2 48/6/2 53/5/2
f 21/97/5 53/98/5 69/43/5 64/53/5
f 8/7/6 48/99/6 68/56/6 63/47/6
f 22/100/6 41/101/6 67/39/6 65/57/6
f 3/102/5 36/103/5 66/85/5 62/93/5
f 48/99/6 22/100/6 65/57/6 68/56/6
f 36/103/5 21/97/5 64/53/5 66/85/5
f 7/8/3 8/7/3 63/47/3 61/44/3
f 53/98/5 7/8/5 61/44/5 69/43/5
f 41/101/6 4/104/6 60/40/6 67/39/6
f 19/52/1 17/51/1 60/2/1 62/1/1
f 77/86/5 72/55/5 71/105/5 75/87/5
f 75/87/5 71/105/5 73/94/5 76/96/5
f 71/105/5 70/106/5 74/95/5 73/94/5
f 72/55/5 78/54/5 70/106/5 71/105/5
f 57/46/3 59/34/3 74/95/3 70/106/3
f 69/43/3 57/46/3 70/106/3 78/54/3
f 35/65/4 46/64/4 76/96/4 73/94/4
f 66/85/2 64/53/2 72/55/2 77/86/2
